<?xml version="1.0" encoding="utf-8"?>
<!-- Generator: Adobe Illustrator 27.5.0, SVG Export Plug-In . SVG Version: 6.00 Build 0)  -->
<svg version="1.1" id="Layer_1" xmlns="http://www.w3.org/2000/svg" xmlns:xlink="http://www.w3.org/1999/xlink" x="0px" y="0px"
	 viewBox="0 0 4000 4000" style="enable-background:new 0 0 4000 4000;" xml:space="preserve">
<g>
	<rect y="0" style="fill-rule:evenodd;clip-rule:evenodd;fill:#FFFFFF;" width="4000" height="4000"/>
	<path style="fill-rule:evenodd;clip-rule:evenodd;" d="M3457.211,3067.35v319.275h-77.771V3195.15l-71.403,191.475h-62.764
		l-71.867-191.928v191.928h-77.771V3067.35h91.87l89.6,221.035l88.692-221.035H3457.211z M2851.404,3067.35v191.017
		c0,19.105,4.7,33.808,14.095,44.122c9.403,10.308,23.198,15.458,41.39,15.458c18.188,0,32.141-5.15,41.842-15.458
		c9.705-10.313,14.555-25.017,14.555-44.122V3067.35h77.779v190.563c0,28.502-6.067,52.607-18.201,72.312
		c-12.126,19.71-28.426,34.568-48.893,44.575c-20.463,10.002-43.278,15.01-68.445,15.01s-47.681-4.933-67.537-14.783
		c-19.861-9.85-35.551-24.708-47.074-44.57c-11.523-19.862-17.285-44.042-17.285-72.543V3067.35H2851.404z M2610.812,3389.81
		c-23.348,0-44.271-3.795-62.764-11.372c-18.494-7.578-33.276-18.798-44.344-33.653c-11.072-14.857-16.907-32.748-17.513-53.668
		h82.772c1.217,11.82,5.31,20.843,12.284,27.062c6.979,6.217,16.069,9.322,27.287,9.322c11.523,0,20.622-2.657,27.291-7.957
		c6.669-5.31,10.006-12.662,10.006-22.063c0-7.88-2.657-14.4-7.959-19.553c-5.302-5.155-11.829-9.402-19.556-12.738
		c-7.735-3.335-18.729-7.124-32.979-11.372c-20.614-6.363-37.439-12.727-50.484-19.1c-13.033-6.363-24.247-15.765-33.651-28.195
		c-9.404-12.43-14.103-28.653-14.103-48.672c0-29.707,10.767-52.978,32.296-69.807c21.525-16.833,49.569-25.243,84.139-25.243
		c35.172,0,63.517,8.41,85.05,25.243c21.525,16.828,33.044,40.247,34.566,70.265h-84.143c-0.606-10.308-4.394-18.42-11.369-24.335
		c-6.974-5.905-15.918-8.868-26.835-8.868c-9.399,0-16.98,2.505-22.738,7.508c-5.766,5.002-8.643,12.202-8.643,21.603
		c0,10.31,4.85,18.345,14.551,24.11c9.708,5.753,24.866,11.972,45.483,18.642c20.614,6.973,37.374,13.645,50.256,20.013
		c12.891,6.368,24.027,15.613,33.431,27.742c9.399,12.132,14.099,27.747,14.099,46.847c0,18.188-4.622,34.72-13.871,49.573
		c-9.249,14.858-22.664,26.678-40.255,35.475C2655.526,3385.412,2634.766,3389.81,2610.812,3389.81z M2331.552,3210.159
		c14.86,0,25.928-3.487,33.203-10.458c7.279-6.973,10.917-16.828,10.917-29.562c0-12.737-3.638-22.597-10.917-29.565
		c-7.275-6.973-18.343-10.46-33.203-10.46h-42.297v80.045H2331.552z M2454.806,3170.139c0,18.497-4.24,35.395-12.728,50.707
		c-8.492,15.312-21.533,27.667-39.115,37.068c-17.59,9.402-39.421,14.098-65.495,14.098h-48.214v114.613h-77.767V3067.35h125.98
		c25.468,0,46.997,4.393,64.587,13.185c17.582,8.797,30.774,20.925,39.567,36.383
		C2450.412,3132.385,2454.806,3150.122,2454.806,3170.139z M2155.087,3067.35v319.275h-77.775V3067.35H2155.087z M2021.375,3067.35
		v319.275h-77.767V3195.15l-71.411,191.475h-62.764l-71.863-191.928v191.928h-77.771V3067.35h91.874l89.596,221.035l88.696-221.035
		H2021.375z M1491.521,3129.655v64.588h104.15v60.032h-104.15v70.045h117.794v62.305h-195.569V3067.35h195.569v62.305H1491.521z
		 M1194.984,3211.072h48.206c14.254,0,24.947-3.492,32.064-10.465c7.133-6.973,10.693-16.823,10.693-29.562
		c0-12.127-3.56-21.68-10.693-28.653c-7.117-6.973-17.81-10.463-32.064-10.463h-48.206V3211.072z M1280.031,3386.625
		l-66.402-120.525h-18.644v120.525h-77.775V3067.35h130.53c25.167,0,46.623,4.393,64.359,13.185
		c17.733,8.797,31.002,20.85,39.795,36.162c8.789,15.312,13.192,32.367,13.192,51.165c0,21.221-5.99,40.172-17.965,56.853
		c-11.979,16.672-29.643,28.499-52.987,35.475l73.677,126.435H1280.031z M910.727,3318.859c25.468,0,45.862-8.49,61.174-25.47
		c15.312-16.978,22.965-39.42,22.965-67.308c0-28.205-7.654-50.717-22.965-67.545c-15.312-16.823-35.706-25.242-61.174-25.242
		c-25.773,0-46.313,8.343-61.625,25.015c-15.316,16.682-22.97,39.27-22.97,67.772c0,28.195,7.654,50.707,22.97,67.54
		C864.414,3310.444,884.954,3318.859,910.727,3318.859z M910.727,3389.81c-30.017,0-57.536-6.979-82.548-20.925
		c-25.016-13.942-44.873-33.425-59.583-58.442c-14.701-25.01-22.054-53.14-22.054-84.363c0-31.233,7.353-59.277,22.054-84.147
		c14.709-24.86,34.566-44.267,59.583-58.213c25.012-13.947,52.531-20.92,82.548-20.92c30.021,0,57.532,6.973,82.552,20.92
		c25.016,13.947,44.714,33.353,59.127,58.213c14.4,24.87,21.598,52.913,21.598,84.147c0,31.223-7.275,59.353-21.83,84.363
		c-14.551,25.017-34.261,44.5-59.123,58.442C968.182,3382.832,940.749,3389.81,910.727,3389.81z M2902.918,3455.852h-14.433v117.487
		h18.958v-82.913l66.638,82.913h14.262v-117.487h-18.795v83.585L2902.918,3455.852z M2747.173,3531.547h-49.674l24.833-55.895
		L2747.173,3531.547z M2765.3,3573.338h19.975l-52.702-117.487h-20.479l-52.702,117.487h19.971l11.084-24.675h63.611
		L2765.3,3573.338z M2561.39,3470.785c-11.971-11.862-26.465-17.792-43.473-17.792c-19.246,0-34.351,6.015-45.316,18.043
		c-10.962,12.028-16.447,26.938-16.447,44.73c0,8.06,1.229,15.587,3.691,22.573c2.466,6.992,6.099,13.318,10.909,18.968
		c4.814,5.65,11.275,10.125,19.389,13.427c8.11,3.298,17.371,4.947,27.775,4.947c18.351,0,33.736-6.822,46.163-20.47v-48.175
		h-50.191v16.79h32.727v23.835c-8.276,6.935-17.843,10.403-28.699,10.403c-14.319,0-25.122-4.087-32.389-12.255
		c-7.28-8.168-10.909-18.18-10.909-30.043c-0.114-12.865,3.743-23.668,11.576-32.39c7.837-8.731,18.404-13.092,31.722-13.092
		c5.599,0,11.275,1.092,17.041,3.27c5.758,2.182,10.657,5.287,14.677,9.317L2561.39,3470.785z M2252.581,3515.427
		c0-13.195,3.662-23.938,10.995-32.225c7.324-8.277,17.59-12.417,30.798-12.417c9.062,0.115,16.813,2.433,23.246,6.965
		c6.429,4.535,11.019,10.043,13.761,16.535c2.742,6.492,4.114,13.535,4.114,21.142c0,12.317-3.471,22.578-10.409,30.803
		c-6.929,8.225-17.289,12.335-31.051,12.335c-6.938,0-13.118-1.257-18.546-3.78c-5.424-2.513-9.762-5.867-13.005-10.062
		s-5.676-8.783-7.3-13.763C2253.557,3525.982,2252.695,3520.803,2252.581,3515.427z M2294.373,3453.665
		c-17.68,0-32.169,5.792-43.473,17.372c-11.3,11.583-16.948,26.323-16.948,44.225c0,7.947,1.257,15.472,3.772,22.578
		c2.519,7.1,6.156,13.512,10.909,19.213c4.757,5.712,11.051,10.267,18.884,13.682c7.833,3.412,16.671,5.122,26.518,5.122
		c9.851,0,18.685-1.653,26.518-4.952c7.837-3.307,14.127-7.808,18.888-13.512c4.752-5.711,8.39-12.175,10.905-19.388
		c2.519-7.22,3.776-14.848,3.776-22.908c0-17.008-5.204-31.47-15.605-43.39C2328.101,3459.792,2313.392,3453.779,2294.373,3453.665z
		 M2058.57,3455.852v117.487h80.729v-17.457h-61.93v-100.03H2058.57z M1945.293,3472.299c-8.285-13.2-22.884-19.805-43.807-19.805
		c-5.599,0-10.962,0.637-16.117,1.927c-5.143,1.285-9.957,3.218-14.433,5.793c-4.472,2.573-8.061,6.098-10.738,10.572
		c-2.681,4.48-4.028,9.625-4.028,15.445c0,4.81,0.863,9.085,2.6,12.837c1.733,3.75,3.914,6.803,6.551,9.146
		c2.625,2.347,6.063,4.365,10.319,6.047c4.248,1.672,8.309,2.962,12.162,3.855c3.865,0.898,8.476,1.682,13.847,2.354
		c9.403,1.228,16.76,3.268,22.074,6.122s7.975,7.248,7.975,13.177c0,4.588-1.538,8.418-4.618,11.5
		c-3.072,3.075-6.742,5.177-10.99,6.292c-4.252,1.12-8.956,1.678-14.099,1.678c-16.785,0-28.979-6.43-36.593-19.3l-14.095,9.397
		c9.623,17.793,26.461,26.688,50.517,26.688c8.728,0,16.589-1.148,23.58-3.443c6.999-2.292,12.927-6.237,17.794-11.825
		c4.866-5.598,7.3-12.597,7.3-20.987c0-6.26-1.257-11.665-3.776-16.195c-2.515-4.53-6.181-8.112-10.99-10.743
		c-4.814-2.626-9.68-4.615-14.604-5.957c-4.928-1.344-10.856-2.518-17.79-3.525c-9.29-1.342-16.366-3.19-21.232-5.537
		c-4.866-2.353-7.304-6.095-7.304-11.25c0-5.48,2.523-9.812,7.552-13.005c5.033-3.19,11.584-4.787,19.641-4.787
		c6.152,0.113,11.829,1.318,17.037,3.61c5.2,2.295,9.196,5.462,12,9.482L1945.293,3472.299z M1707.643,3472.963
		c7.271,0,12.809,2.155,16.622,6.463c3.8,4.308,5.701,9.373,5.701,15.193c0,5.93-1.9,10.908-5.701,14.938
		c-3.813,4.027-9.403,6.043-16.793,6.043h-35.75v-42.638H1707.643z M1752.288,3569.98l-35.079-39.108
		c10.856-1.57,18.88-5.737,24.084-12.507c5.208-6.765,7.808-14.796,7.808-24.08c0-10.517-3.662-19.555-10.999-27.103
		c-7.324-7.555-17.476-11.33-30.461-11.33c-6.038,0-15.161-0.033-27.36-0.085c-12.191-0.062-21.318-0.09-27.356-0.09v117.662h18.795
		v-40.615h24.841l35.75,40.615h21.993L1752.288,3569.98z M1519.341,3456.017v68.646c0,10.965-3.023,19.44-9.066,25.432
		c-6.038,5.98-13.871,8.697-23.494,8.135c-8.948-0.335-16.17-3.412-21.647-9.232c-5.485-5.82-8.223-13.931-8.223-24.335v-68.646
		h-18.636v68.646c0,15.888,4.618,28.257,13.851,37.092c9.229,8.843,20.78,13.43,34.656,13.762
		c14.888,0.557,27.132-3.61,36.755-12.505c9.623-8.897,14.437-21.677,14.437-38.348v-68.646H1519.341z M1228.993,3515.427
		c0-13.195,3.666-23.938,10.999-32.225c7.328-8.277,17.59-12.417,30.794-12.417c9.062,0.115,16.813,2.433,23.25,6.965
		c6.429,4.535,11.015,10.043,13.761,16.535c2.738,6.492,4.11,13.535,4.11,21.142c0,12.317-3.463,22.578-10.405,30.803
		c-6.934,8.225-17.285,12.335-31.047,12.335c-6.942,0-13.127-1.257-18.551-3.78c-5.428-2.513-9.757-5.867-13.005-10.062
		s-5.68-8.783-7.3-13.763C1229.974,3525.982,1229.107,3520.803,1228.993,3515.427z M1270.786,3453.665
		c-17.68,0-32.166,5.792-43.469,17.372c-11.3,11.583-16.951,26.323-16.951,44.225c0,7.947,1.257,15.472,3.776,22.578
		c2.523,7.1,6.156,13.512,10.913,19.213c4.753,5.712,11.047,10.267,18.876,13.682c7.833,3.412,16.679,5.122,26.526,5.122
		c9.843,0,18.681-1.653,26.514-4.952c7.837-3.307,14.124-7.808,18.888-13.512c4.753-5.711,8.39-12.175,10.901-19.388
		c2.519-7.22,3.776-14.848,3.776-22.908c0-17.008-5.196-31.47-15.605-43.39C1304.522,3459.792,1289.808,3453.779,1270.786,3453.665z
		 M1033.986,3455.852h-22.331v0.837l45.316,68.48v48.17h18.807v-48.17l46.655-68.48v-0.837h-22.656l-33.402,51.86L1033.986,3455.852
		z M620.558,3326.592h101.88v60.033H542.783V3067.35h77.775V3326.592z"/>
	<path style="fill-rule:evenodd;clip-rule:evenodd;fill:#007C21;" d="M1999.997,994.776
		c64.905,33.642,109.257,101.428,109.257,179.58c0,70.785-36.385,133.066-91.467,169.175l-17.79-210.056l-17.786,210.056
		c-55.086-36.108-91.471-98.39-91.471-169.175C1890.74,1096.205,1935.096,1028.418,1999.997,994.776"/>
	<path style="fill-rule:evenodd;clip-rule:evenodd;fill:#007C21;" d="M1590.883,1174.753
		c69.682-22.107,148.974-5.533,204.236,49.728c50.057,50.055,68.368,119.82,54.952,184.3l-161.112-135.955l135.954,161.111
		c-64.482,13.418-134.249-4.893-184.298-54.945C1585.349,1323.731,1568.78,1244.433,1590.883,1174.753"/>
	<path style="fill-rule:evenodd;clip-rule:evenodd;fill:#007C21;" d="M1420.908,1465.601
		c44.067-48.255,112.854-70.867,180.33-52.785c61.117,16.378,106.47,62.2,124.906,118.11l-185.482-33.237l177.25,63.958
		c-43.921,39.203-106.107,56.212-167.228,39.831C1483.204,1583.4,1434.942,1529.423,1420.908,1465.601"/>
	<path style="fill-rule:evenodd;clip-rule:evenodd;fill:#007C21;" d="M1158.428,1585.153c-2.588,57.09,25.969,113.611,78.882,144.16
		c47.917,27.667,104.305,27.378,150.281,4.205l-135.258-94.153l149.166,70.063c-2.917-51.407-30.855-100.383-78.78-128.05
		C1269.809,1550.829,1206.577,1554.358,1158.428,1585.153"/>
	<path style="fill-rule:evenodd;clip-rule:evenodd;fill:#007C21;" d="M1343.65,1181.301c-17.281,54.472-4.325,116.46,38.875,159.665
		c39.132,39.128,93.669,53.443,144.079,42.955l-106.286-125.948l125.952,106.28c10.49-50.408-3.825-104.948-42.957-144.075
		C1460.113,1176.973,1398.125,1164.018,1343.65,1181.301"/>
	<path style="fill-rule:evenodd;clip-rule:evenodd;fill:#007C21;" d="M1748.345,893.48c-42.2,38.537-61.975,98.698-46.163,157.71
		c14.319,53.453,54.394,93.118,103.292,109.243l-29.069-162.222l55.937,155.022c34.294-38.415,49.158-92.802,34.839-146.253
		C1851.368,947.961,1804.164,905.75,1748.345,893.48"/>
	<path style="fill-rule:evenodd;clip-rule:evenodd;fill:#007C21;" d="M1078.627,1241.816c-22.27,70.208-5.579,150.103,50.106,205.78
		c50.431,50.433,120.724,68.882,185.693,55.365l-136.979-162.33l162.329,136.985c13.517-64.972-4.932-135.265-55.363-185.698
		C1228.729,1236.236,1148.834,1219.545,1078.627,1241.816"/>
	<path style="fill-rule:evenodd;clip-rule:evenodd;fill:#007C21;" d="M1350.648,876.146c-22.27,70.21-5.574,150.103,50.106,205.785
		c50.431,50.428,120.723,68.883,185.693,55.366l-136.983-162.336l162.333,136.985c13.517-64.97-4.932-135.265-55.363-185.693
		C1500.75,870.572,1420.855,853.875,1350.648,876.146"/>
	<path style="fill-rule:evenodd;clip-rule:evenodd;fill:#007C21;" d="M1140.386,1014.175c-13.961,44.022-3.495,94.12,31.421,129.033
		c31.616,31.62,75.696,43.19,116.431,34.715l-85.889-101.788l101.786,85.89c8.476-40.733-3.093-84.812-34.717-116.433
		C1234.507,1010.678,1184.409,1000.215,1140.386,1014.175"/>
	<path style="fill-rule:evenodd;clip-rule:evenodd;fill:#007C21;" d="M1621.555,789.188c-23.93,21.852-35.14,55.962-26.172,89.425
		c8.114,30.306,30.839,52.795,58.561,61.937l-16.475-91.975l31.714,87.893c19.438-21.78,27.873-52.617,19.751-82.923
		C1679.965,820.081,1653.199,796.148,1621.555,789.188"/>
	<path style="fill-rule:evenodd;clip-rule:evenodd;fill:#007C21;" d="M1896.872,811.488c-23.926,21.845-35.14,55.957-26.172,89.418
		c8.118,30.308,30.843,52.795,58.565,61.938l-16.479-91.975l31.714,87.892c19.442-21.778,27.877-52.615,19.755-82.922
		C1955.287,842.376,1928.517,818.443,1896.872,811.488"/>
	<path style="fill-rule:evenodd;clip-rule:evenodd;fill:#007C21;" d="M1769.919,632.39c41.003,21.255,69.023,64.078,69.023,113.453
		c0,44.72-22.982,84.065-57.784,106.88l-11.239-132.708l-11.239,132.708c-34.802-22.815-57.784-62.16-57.784-106.88
		C1700.896,696.468,1728.916,653.645,1769.919,632.39"/>
	<path style="fill-rule:evenodd;clip-rule:evenodd;fill:#007C21;" d="M1003.546,1592.409c27.295,17.457,63.147,19.46,93.148,2.14
		c27.169-15.69,43.014-43.46,44.666-72.605l-84.574,39.723l76.693-53.381c-26.07-13.144-58.04-13.303-85.209,2.382
		C1018.267,1527.991,1002.077,1560.038,1003.546,1592.409"/>
	<path style="fill-rule:evenodd;clip-rule:evenodd;fill:#007C21;" d="M2409.111,1174.753
		c-69.678-22.107-148.975-5.533-204.236,49.728c-50.053,50.055-68.367,119.82-54.948,184.3l161.112-135.955l-135.954,161.111
		c64.482,13.418,134.245-4.893,184.298-54.945C2414.649,1323.731,2431.218,1244.433,2409.111,1174.753"/>
	<path style="fill-rule:evenodd;clip-rule:evenodd;fill:#007C21;" d="M2841.565,1585.153c2.592,57.09-25.964,113.611-78.878,144.16
		c-47.921,27.667-104.305,27.378-150.285,4.205l135.262-94.153l-149.17,70.063c2.917-51.407,30.859-100.383,78.784-128.05
		C2730.189,1550.829,2793.421,1554.358,2841.565,1585.153"/>
	<path style="fill-rule:evenodd;clip-rule:evenodd;fill:#007C21;" d="M2656.344,1181.301c17.285,54.472,4.329,116.46-38.871,159.665
		c-39.132,39.128-93.668,53.443-144.079,42.955l106.282-125.948l-125.948,106.28c-10.49-50.408,3.825-104.948,42.957-144.075
		C2539.885,1176.973,2601.873,1164.018,2656.344,1181.301"/>
	<path style="fill-rule:evenodd;clip-rule:evenodd;fill:#007C21;" d="M2251.653,893.48c42.2,38.537,61.975,98.698,46.163,157.71
		c-14.319,53.453-54.399,93.118-103.296,109.243l29.069-162.222l-55.937,155.022c-34.286-38.415-49.158-92.802-34.839-146.253
		C2148.63,947.961,2195.834,905.75,2251.653,893.48"/>
	<path style="fill-rule:evenodd;clip-rule:evenodd;fill:#007C21;" d="M2921.371,1241.816c22.27,70.208,5.574,150.103-50.106,205.78
		c-50.435,50.433-120.723,68.882-185.693,55.365l136.979-162.33l-162.333,136.985c-13.513-64.972,4.936-135.265,55.367-185.698
		C2771.269,1236.236,2851.16,1219.545,2921.371,1241.816"/>
	<path style="fill-rule:evenodd;clip-rule:evenodd;fill:#007C21;" d="M2649.35,876.146c22.27,70.21,5.575,150.103-50.11,205.785
		c-50.427,50.428-120.719,68.883-185.689,55.366l136.983-162.336l-162.337,136.985c-13.517-64.97,4.932-135.265,55.367-185.693
		C2499.244,870.572,2579.139,853.875,2649.35,876.146"/>
	<path style="fill-rule:evenodd;clip-rule:evenodd;fill:#007C21;" d="M2859.607,1014.175c13.961,44.022,3.495,94.12-31.417,129.033
		c-31.62,31.62-75.7,43.19-116.435,34.715l85.893-101.788l-101.786,85.89c-8.48-40.733,3.092-84.812,34.713-116.433
		C2765.491,1010.678,2815.585,1000.215,2859.607,1014.175"/>
	<path style="fill-rule:evenodd;clip-rule:evenodd;fill:#007C21;" d="M2378.443,789.188c23.93,21.852,35.14,55.962,26.176,89.425
		c-8.118,30.306-30.843,52.795-58.569,61.937l16.479-91.975l-31.714,87.893c-19.442-21.78-27.873-52.617-19.751-82.923
		C2320.029,820.081,2346.799,796.148,2378.443,789.188"/>
	<path style="fill-rule:evenodd;clip-rule:evenodd;fill:#007C21;" d="M2103.122,811.488c23.93,21.845,35.14,55.957,26.176,89.418
		c-8.118,30.308-30.843,52.795-58.565,61.938l16.479-91.975l-31.714,87.892c-19.442-21.778-27.877-52.615-19.755-82.922
		C2044.711,842.376,2071.477,818.443,2103.122,811.488"/>
	<path style="fill-rule:evenodd;clip-rule:evenodd;fill:#007C21;" d="M2230.075,632.39c-41.003,21.255-69.022,64.078-69.022,113.453
		c0,44.72,22.986,84.065,57.784,106.88l11.239-132.708l11.243,132.708c34.798-22.815,57.784-62.16,57.784-106.88
		C2299.102,696.468,2271.078,653.645,2230.075,632.39"/>
	<path style="fill-rule:evenodd;clip-rule:evenodd;fill:#007C21;" d="M2996.452,1592.409c-27.299,17.457-63.147,19.46-93.148,2.14
		c-27.169-15.69-43.014-43.46-44.67-72.605l84.578,39.723l-76.693-53.381c26.07-13.144,58.04-13.303,85.209,2.382
		C2981.731,1527.991,2997.925,1560.038,2996.452,1592.409"/>
	<path style="fill-rule:evenodd;clip-rule:evenodd;fill:#007C21;" d="M2813.62,1884.496c-27.295,17.462-63.147,19.46-93.148,2.14
		c-27.173-15.685-43.017-43.455-44.669-72.6l84.574,39.722l-76.689-53.38c26.07-13.143,58.036-13.308,85.213,2.38
		C2798.898,1820.078,2815.093,1852.129,2813.62,1884.496"/>
	<path style="fill-rule:evenodd;clip-rule:evenodd;fill:#007C21;" d="M1999.997,423.978
		c64.905,33.642,109.257,101.428,109.257,179.58c0,70.785-36.385,133.062-91.467,169.175l-17.79-210.057l-17.786,210.057
		c-55.086-36.113-91.471-98.39-91.471-169.175C1890.74,525.407,1935.096,457.62,1999.997,423.978"/>
	<path style="fill-rule:evenodd;clip-rule:evenodd;fill:#007C21;" d="M2579.07,1465.601
		c-44.063-48.255-112.854-70.867-180.33-52.785c-61.117,16.378-106.474,62.2-124.91,118.11l185.486-33.237l-177.254,63.958
		c43.921,39.203,106.116,56.212,167.228,39.831C2516.769,1583.4,2565.032,1529.423,2579.07,1465.601"/>
	<path style="fill-rule:evenodd;clip-rule:evenodd;fill:#007C21;" d="M2541.704,1658.919c-12.984,25.048-39.148,42.17-69.312,42.17
		c-27.319,0-51.363-14.045-65.3-35.305l81.079-6.865l-81.079-6.87c13.936-21.26,37.98-35.305,65.3-35.305
		C2502.556,1616.744,2528.72,1633.866,2541.704,1658.919"/>
	<path style="fill-rule:evenodd;clip-rule:evenodd;fill:#007C21;" d="M2643.397,1524.674c8.529,26.897,2.136,57.507-19.194,78.837
		c-19.32,19.318-46.248,26.386-71.138,21.208l52.474-62.188l-62.187,52.475c-5.176-24.888,1.888-51.818,21.208-71.135
		C2585.889,1522.539,2616.5,1516.148,2643.397,1524.674"/>
	<path style="fill-rule:evenodd;clip-rule:evenodd;fill:#007C21;" d="M1142.388,2618.049l-46.883,16.257l5.111-49.355
		c15.837-152.745,31.669-305.49,47.498-458.24l-125.289,629.948c0,0,259.318-206.613,665.84-162.237
		C1510.19,2549.597,1320.041,2556.452,1142.388,2618.049"/>
	<path style="fill-rule:evenodd;clip-rule:evenodd;fill:#007C21;" d="M1923.443,2651.762
		c-242.049-130.375-529.085-154.507-791.406-63.552c21.456-207,42.912-413.995,64.364-621
		c165.08-57.105,338.574-82.285,511.369-75.198h-0.029c44.629,71.825,76.038,155.06,98.946,250.422
		c22.917,95.385,41.536,191.632,62.109,287.518c16.081,74.928,33.504,148.808,54.639,221.805L1923.443,2651.762z M2304.908,1891.583
		c168.9-5.495,338.265,19.818,499.593,75.628c21.456,207.005,42.912,414,64.368,621c-271.627-94.182-569.759-64.967-817,77.83
		c7.658-48.303,15.572-96.568,24.959-144.832c24.349-125.202,56.279-247.908,96.623-368.938
		C2204.156,2060.186,2247.673,1970.536,2304.908,1891.583z"/>
	<path style="fill-rule:evenodd;clip-rule:evenodd;fill:#007C21;" d="M2858.517,2618.049l46.887,16.257l-5.119-49.355
		c-15.833-152.745-31.661-305.49-47.49-458.24l125.285,629.948c0,0-259.322-206.613-665.84-162.237
		C2490.719,2549.597,2680.868,2556.452,2858.517,2618.049"/>
	<path style="fill-rule:evenodd;clip-rule:evenodd;fill:#007C21;" d="M2000.453,2756.659
		c-82.707-220.558-108.936-425.286-162.101-646.619c-46.277-192.595-135.722-395.523-406.323-513.908
		c0,0,378.955-41.493,568.424,429.255c0,0,118.416-310.828,402.628-310.828c0,0-165.78,118.418-260.526,402.628
		C2047.82,2401.397,2024.134,2614.554,2000.453,2756.659"/>
	<path style="fill-rule:evenodd;clip-rule:evenodd;fill:#007C21;" d="M2003.146,1442.111c97.892,0,177.25,79.357,177.25,177.247
		c0,97.893-79.358,177.25-177.25,177.25c-97.896,0-177.25-79.357-177.25-177.25
		C1825.896,1521.468,1905.25,1442.111,2003.146,1442.111"/>
</g>
</svg>
